<svg width="37" height="37" viewBox="0 0 37 37" fill="none" xmlns="http://www.w3.org/2000/svg">
<circle cx="18.5" cy="18.5" r="18.5" fill="#D9D9D9"/>
<path d="M27.5641 19.5259C27.757 19.5328 27.9494 19.5023 28.1298 19.4363C28.3102 19.3703 28.4749 19.2701 28.6139 19.1418C28.753 19.0134 28.8636 18.8594 28.9391 18.6891C29.0147 18.5189 29.0536 18.3357 29.0536 18.1507C29.0536 17.9656 29.0147 17.7825 28.9391 17.6122C28.8636 17.4419 28.753 17.288 28.6139 17.1596C28.4749 17.0312 28.3102 16.931 28.1298 16.865C27.9494 16.799 27.757 16.7686 27.5641 16.7755C27.5331 16.7755 27.5041 16.7812 27.4721 16.7831L26.9901 14.9623C27.1494 14.8477 27.282 14.7024 27.3794 14.5357C27.4767 14.3691 27.5366 14.1848 27.5553 13.9947C27.574 13.8046 27.551 13.6128 27.4878 13.4317C27.4246 13.2506 27.3227 13.0842 27.1884 12.9431C27.0542 12.8019 26.8906 12.6892 26.7083 12.6122C26.526 12.5352 26.3288 12.4956 26.1296 12.4959C25.9303 12.4961 25.7333 12.5363 25.5512 12.6138C25.3691 12.6913 25.2059 12.8045 25.0721 12.946L20.1821 10.7677C20.2332 10.6284 20.2602 10.4821 20.2621 10.3345C20.2671 10.1508 20.2337 9.96797 20.1639 9.79682C20.094 9.62568 19.9891 9.46968 19.8553 9.33802C19.7215 9.20637 19.5615 9.10173 19.3848 9.03028C19.2082 8.95884 19.0183 8.92203 18.8266 8.92203C18.6348 8.92203 18.445 8.95884 18.2683 9.03028C18.0916 9.10173 17.9316 9.20637 17.7978 9.33802C17.664 9.46968 17.5591 9.62568 17.4893 9.79682C17.4194 9.96797 17.386 10.1508 17.3911 10.3345C17.3935 10.3814 17.3985 10.4281 17.4061 10.4744L14.2921 11.3896C14.077 11.1336 13.7731 10.9601 13.4357 10.9009C13.0984 10.8416 12.75 10.9006 12.4542 11.067C12.1584 11.2333 11.9349 11.496 11.8244 11.8072C11.7138 12.1183 11.7236 12.4572 11.8521 12.762L8.92206 15.269C8.70105 15.1393 8.44722 15.07 8.18806 15.0687C7.84502 15.0671 7.51281 15.1837 7.25194 15.3971C6.99106 15.6106 6.81889 15.9068 6.76678 16.2317C6.71467 16.5567 6.7861 16.8887 6.96805 17.1674C7.15 17.4461 7.43036 17.6529 7.75806 17.7501L7.56406 19.5383C7.34538 19.5674 7.13667 19.6445 6.95425 19.7637C6.77182 19.8828 6.62061 20.0408 6.51243 20.2252C6.40425 20.4097 6.34204 20.6156 6.33064 20.8269C6.31925 21.0381 6.35899 21.2491 6.44676 21.4432C6.53452 21.6374 6.66794 21.8094 6.83658 21.946C7.00523 22.0825 7.20453 22.1798 7.41892 22.2303C7.63331 22.2808 7.85698 22.2831 8.07246 22.2371C8.28793 22.191 8.48938 22.0979 8.66106 21.9648L9.62706 22.3721L9.62406 22.4009C9.62549 22.7436 9.76048 23.0734 10.0025 23.3256C10.2446 23.5779 10.5763 23.7344 10.9325 23.7644C11.2887 23.7944 11.6438 23.6957 11.9281 23.4878C12.2123 23.2799 12.4053 22.9777 12.4691 22.6405H13.5731C13.6597 22.9395 13.8497 23.2014 14.1119 23.3835C14.3741 23.5656 14.6931 23.657 15.0166 23.6427C15.34 23.6285 15.6489 23.5094 15.8926 23.3051C16.1363 23.1007 16.3004 22.8232 16.3581 22.5178L19.4651 22.6155C19.6925 22.8036 19.9769 22.9167 20.2765 22.9383C20.576 22.9599 20.8749 22.8887 21.1291 22.7353C22.883 23.6525 24.3624 24.9851 25.4261 26.606C25.356 26.7693 25.3196 26.9441 25.3191 27.1207C25.3177 27.3559 25.3793 27.5874 25.4978 27.7933C25.6164 27.9992 25.7881 28.1726 25.9965 28.2968C26.2049 28.421 26.443 28.492 26.6881 28.503C26.9333 28.5139 27.1773 28.4645 27.3968 28.3594C27.6163 28.2543 27.8041 28.097 27.9422 27.9026C28.0803 27.7082 28.164 27.4831 28.1855 27.2488C28.207 27.0145 28.1655 26.7789 28.0649 26.5644C27.9644 26.3498 27.8081 26.1636 27.6111 26.0234C27.1087 25.3229 26.7559 24.534 26.5731 23.7023C26.8193 23.6274 27.0395 23.4896 27.2102 23.3038C27.3808 23.1179 27.4954 22.8911 27.5417 22.6475C27.5879 22.404 27.5641 22.153 27.4727 21.9214C27.3814 21.6899 27.2259 21.4866 27.0231 21.3333L27.5641 19.5259ZM28.1291 18.1507C28.1289 18.2575 28.0956 18.3619 28.0336 18.4506C27.9715 18.5393 27.8834 18.6085 27.7804 18.6493C27.6774 18.69 27.5641 18.7007 27.4548 18.6798C27.3455 18.6589 27.2451 18.6074 27.1663 18.5319C27.0874 18.4564 27.0337 18.3602 27.0119 18.2554C26.9902 18.1506 27.0012 18.042 27.0438 17.9433C27.0864 17.8446 27.1585 17.7602 27.2511 17.7007C27.3437 17.6412 27.4526 17.6094 27.5641 17.6092C27.7139 17.6092 27.8576 17.6663 27.9636 17.7678C28.0695 17.8693 28.1291 18.0071 28.1291 18.1507ZM26.9851 16.8933C26.7508 16.9937 26.5489 17.1524 26.4004 17.353C26.252 17.5536 26.1624 17.7887 26.1411 18.0338H25.0201C25.0036 17.8465 24.9471 17.6645 24.854 17.4992C24.761 17.3338 24.6333 17.1886 24.4791 17.0725L25.8861 15.2201C26.1015 15.2617 26.3246 15.2485 26.5331 15.1818L26.9851 16.8933ZM24.7111 22.2284L21.8131 21.5173C21.8013 21.2074 21.6796 20.9106 21.4681 20.6759L22.6381 19.1665C22.8176 19.3285 23.0394 19.4413 23.28 19.4931C23.5207 19.5449 23.7715 19.5337 24.0061 19.4607L25.2581 21.3141C25.1084 21.4243 24.9829 21.5618 24.889 21.7188C24.7952 21.8757 24.7347 22.0489 24.7111 22.2284ZM14.2511 13.1606L18.3321 15.2076C18.2449 15.4506 18.239 15.7136 18.3151 15.9599L15.6951 17.2508C15.5617 17.102 15.3965 16.9825 15.2106 16.9003C15.0248 16.8182 14.8227 16.7752 14.6181 16.7745C14.6061 16.7745 14.5951 16.7774 14.5831 16.7783L13.6401 13.5488C13.8755 13.4725 14.086 13.3387 14.2511 13.1606ZM25.4001 15.0476L24.0331 16.8454C23.8025 16.7691 23.5549 16.753 23.3157 16.7988C23.0765 16.8446 22.8543 16.9507 22.6721 17.1061L21.0811 15.9561C21.1358 15.7921 21.1478 15.6177 21.1161 15.4482L24.8231 14.4323C24.9456 14.6884 25.1469 14.9025 25.4001 15.0457V15.0476ZM23.5961 18.6912C23.4846 18.691 23.3756 18.6591 23.283 18.5996C23.1904 18.5401 23.1182 18.4556 23.0757 18.3568C23.0332 18.2581 23.0221 18.1494 23.044 18.0446C23.0659 17.9399 23.1197 17.8436 23.1986 17.7681C23.2775 17.6926 23.378 17.6413 23.4874 17.6205C23.5968 17.5997 23.7101 17.6105 23.8131 17.6514C23.9161 17.6923 24.0041 17.7616 24.0661 17.8505C24.128 17.9394 24.1611 18.0438 24.1611 18.1507C24.1608 18.2941 24.1012 18.4316 23.9952 18.5329C23.8893 18.6343 23.7457 18.6912 23.5961 18.6912ZM19.6971 16.1516C19.5856 16.1514 19.4767 16.1196 19.3841 16.0601C19.2915 16.0006 19.2194 15.9162 19.1768 15.8175C19.1342 15.7188 19.1232 15.6102 19.1449 15.5054C19.1667 15.4007 19.2204 15.3044 19.2993 15.2289C19.3781 15.1534 19.4785 15.1019 19.5878 15.081C19.6971 15.0601 19.8104 15.0708 19.9134 15.1116C20.0164 15.1523 20.1045 15.2215 20.1666 15.3102C20.2286 15.3989 20.2619 15.5033 20.2621 15.6101C20.2618 15.7536 20.2022 15.891 20.0962 15.9924C19.9903 16.0937 19.8467 16.1516 19.6971 16.1516ZM14.6171 17.6092C14.7286 17.6092 14.8376 17.6409 14.9303 17.7002C15.023 17.7596 15.0953 17.8439 15.138 17.9427C15.1807 18.0414 15.192 18.15 15.1703 18.2548C15.1486 18.3596 15.095 18.4559 15.0162 18.5316C14.9374 18.6072 14.837 18.6587 14.7277 18.6797C14.6184 18.7007 14.505 18.6901 14.4019 18.6493C14.2988 18.6086 14.2107 18.5395 14.1486 18.4507C14.0865 18.3619 14.0533 18.2575 14.0531 18.1507C14.0531 18.0071 14.1126 17.8693 14.2185 17.7678C14.3245 17.6663 14.4682 17.6092 14.6181 17.6092H14.6171ZM16.0531 18.1507C16.0521 17.983 16.0189 17.817 15.9551 17.661L18.5231 16.396C18.6549 16.5776 18.8306 16.726 19.0352 16.8286C19.2398 16.9313 19.4672 16.985 19.6981 16.9853L19.7221 16.9834L19.2881 20.4909L15.3821 20.9643C15.3038 20.9405 15.2235 20.9231 15.1421 20.9126L14.8451 19.5038C15.1812 19.4522 15.4872 19.2878 15.7085 19.0399C15.9298 18.7921 16.0519 18.4769 16.0531 18.1507ZM14.9501 21.7281C15.0615 21.7283 15.1704 21.7602 15.263 21.8196C15.3556 21.8791 15.4278 21.9635 15.4703 22.0622C15.5129 22.161 15.524 22.2696 15.5022 22.3743C15.4804 22.4791 15.4267 22.5753 15.3479 22.6508C15.2691 22.7264 15.1686 22.7778 15.0593 22.7987C14.95 22.8196 14.8367 22.809 14.7337 22.7682C14.6307 22.7274 14.5426 22.6583 14.4805 22.5695C14.4185 22.4808 14.3853 22.3764 14.3851 22.2696C14.3851 22.126 14.4446 21.9883 14.5505 21.8867C14.6565 21.7852 14.8002 21.7281 14.9501 21.7281ZM16.0261 21.3688L19.0791 20.9998C18.9936 21.1757 18.9489 21.3673 18.948 21.5613C18.9471 21.7554 18.9901 21.9473 19.0741 22.1239L16.3611 22.0396C16.3164 21.7906 16.2004 21.5583 16.0261 21.3688ZM20.2391 16.8818C20.4919 16.7825 20.71 16.6163 20.8681 16.4027L22.3541 17.476C22.2336 17.6712 22.1676 17.8929 22.1624 18.1196C22.1571 18.3463 22.2128 18.5706 22.3241 18.7707L21.0811 20.3711C20.8906 20.2654 20.6767 20.2043 20.4569 20.1926C20.2371 20.181 20.0176 20.2191 19.8161 20.304L20.2391 16.8818ZM26.1291 13.3283C26.2406 13.3283 26.3497 13.36 26.4424 13.4194C26.5352 13.4788 26.6074 13.5632 26.6501 13.662C26.6928 13.7608 26.704 13.8694 26.6822 13.9743C26.6605 14.0791 26.6067 14.1754 26.5279 14.251C26.449 14.3266 26.3485 14.3781 26.2391 14.399C26.1297 14.4198 26.0163 14.4091 25.9132 14.3682C25.8102 14.3273 25.7221 14.258 25.6601 14.1691C25.5981 14.0802 25.5651 13.9757 25.5651 13.8688C25.5653 13.7254 25.625 13.5879 25.7309 13.4866C25.8368 13.3853 25.9794 13.3283 26.1291 13.3283ZM24.8011 13.3533C24.7308 13.5168 24.6945 13.692 24.6941 13.8688C24.6941 13.9024 24.7021 13.934 24.7041 13.9675L20.9721 14.9891C20.8531 14.7629 20.6711 14.5726 20.4462 14.4393C20.2214 14.306 19.9624 14.235 19.6981 14.234C19.6551 14.234 19.6131 14.2435 19.5711 14.2464L19.0501 11.6877C19.4022 11.6342 19.7207 11.4565 19.9431 11.1893L24.8011 13.3533ZM18.8261 9.79209C18.9376 9.79209 19.0466 9.82377 19.1393 9.88311C19.232 9.94246 19.3043 10.0268 19.347 10.1255C19.3897 10.2242 19.401 10.3329 19.3793 10.4377C19.3576 10.5425 19.304 10.6388 19.2252 10.7144C19.1464 10.7901 19.046 10.8416 18.9367 10.8626C18.8274 10.8836 18.714 10.873 18.6109 10.8322C18.5078 10.7915 18.4197 10.7223 18.3576 10.6336C18.2955 10.5448 18.2623 10.4404 18.2621 10.3335C18.2621 10.1901 18.3215 10.0525 18.4272 9.95102C18.5329 9.8495 18.6764 9.79234 18.8261 9.79209ZM17.5421 10.9344C17.6377 11.1234 17.7772 11.2889 17.9498 11.4182C18.1225 11.5476 18.3237 11.6375 18.5381 11.681L19.0861 14.3691C18.879 14.464 18.6987 14.605 18.5601 14.7802L14.5151 12.7524C14.6434 12.4544 14.6516 12.1214 14.5381 11.818L17.5421 10.9344ZM13.1821 11.7088C13.2936 11.7088 13.4026 11.7404 13.4953 11.7998C13.588 11.8591 13.6603 11.9435 13.703 12.0422C13.7457 12.1409 13.757 12.2495 13.7353 12.3544C13.7136 12.4592 13.66 12.5555 13.5812 12.6311C13.5024 12.7067 13.402 12.7583 13.2927 12.7793C13.1834 12.8002 13.07 12.7897 12.9669 12.7489C12.8638 12.7081 12.7757 12.639 12.7136 12.5502C12.6515 12.4615 12.6183 12.3571 12.6181 12.2502C12.6181 12.1068 12.6774 11.9692 12.7832 11.8677C12.8889 11.7662 13.0324 11.709 13.1821 11.7088ZM13.1421 13.6216L14.0921 16.8723C13.8176 16.9763 13.583 17.1586 13.4201 17.3945L9.62106 16.4659L9.62406 16.4439C9.62239 16.1305 9.50795 15.8272 9.30006 15.5852L12.1241 13.1712C12.2531 13.3082 12.4097 13.4187 12.5845 13.4961C12.7593 13.5735 12.9486 13.6162 13.1411 13.6216H13.1421ZM8.33606 20.8925C8.33606 20.9994 8.30298 21.1039 8.24101 21.1927C8.17904 21.2816 8.09095 21.3509 7.98789 21.3918C7.88484 21.4327 7.77144 21.4434 7.66203 21.4226C7.55262 21.4017 7.45213 21.3502 7.37325 21.2747C7.29438 21.1991 7.24066 21.1028 7.2189 20.9979C7.19714 20.8931 7.2083 20.7844 7.25099 20.6856C7.29368 20.5869 7.36597 20.5024 7.45872 20.4431C7.55147 20.3837 7.66051 20.352 7.77206 20.352C7.92156 20.3522 8.06486 20.4092 8.17058 20.5106C8.27629 20.6119 8.3358 20.7492 8.33606 20.8925ZM8.06606 19.546L8.25506 17.8133C8.53239 17.8008 8.79995 17.7114 9.02524 17.5559C9.25052 17.4004 9.42381 17.1855 9.52406 16.9374L13.2221 17.8411C13.1745 18.0218 13.1697 18.2104 13.2081 18.3931L8.86506 20.0127C8.66042 19.7759 8.37867 19.6119 8.06506 19.547L8.06606 19.546ZM8.18806 15.9024C8.29957 15.9024 8.40857 15.9341 8.5013 15.9934C8.59403 16.0528 8.66632 16.1372 8.70903 16.2359C8.75175 16.3346 8.76298 16.4432 8.7413 16.548C8.71961 16.6528 8.666 16.7491 8.58722 16.8248C8.50844 16.9004 8.40804 16.952 8.2987 16.9729C8.18936 16.9939 8.07599 16.9833 7.97292 16.9426C7.86984 16.9018 7.78169 16.8327 7.7196 16.7439C7.6575 16.6551 7.62426 16.5507 7.62406 16.4439C7.62406 16.3004 7.68345 16.1629 7.78919 16.0614C7.89493 15.9598 8.03839 15.9027 8.18806 15.9024ZM9.00506 21.5853C9.11455 21.4144 9.18174 21.2217 9.2015 21.0221C9.22126 20.8224 9.19306 20.621 9.11906 20.4334L13.3851 18.8426C13.4816 19.0007 13.6102 19.1386 13.7632 19.2484C13.9162 19.3582 14.0906 19.4375 14.2761 19.4818L12.4111 21.9572C12.3176 21.6912 12.1412 21.4592 11.9056 21.2925C11.6701 21.1258 11.3868 21.0324 11.094 21.0251C10.8013 21.0178 10.5133 21.0969 10.269 21.2516C10.0247 21.4063 9.83584 21.6292 9.72806 21.8901L9.00506 21.5853ZM11.0591 22.9414C10.9476 22.9412 10.8387 22.9094 10.7461 22.8499C10.6535 22.7904 10.5814 22.706 10.5388 22.6073C10.4962 22.5086 10.4852 22.4 10.5069 22.2952C10.5287 22.1904 10.5824 22.0942 10.6613 22.0187C10.7401 21.9432 10.8405 21.8917 10.9498 21.8708C11.0591 21.8499 11.1724 21.8606 11.2754 21.9013C11.3784 21.9421 11.4665 22.0113 11.5286 22.1C11.5906 22.1887 11.6239 22.2931 11.6241 22.3999C11.6241 22.5435 11.5645 22.6812 11.4586 22.7828C11.3526 22.8843 11.2089 22.9414 11.0591 22.9414ZM14.4661 19.7731L14.6451 20.925C14.3447 20.9887 14.0737 21.1433 13.872 21.3659C13.6703 21.5885 13.5487 21.8674 13.5251 22.1613H12.8251L14.4661 19.7731ZM20.3821 22.1067C20.2706 22.1065 20.1617 22.0746 20.0691 22.0152C19.9765 21.9557 19.9044 21.8713 19.8618 21.7726C19.8192 21.6738 19.8082 21.5652 19.8299 21.4605C19.8517 21.3557 19.9054 21.2595 19.9843 21.184C20.0631 21.1084 20.1635 21.057 20.2728 21.0361C20.3821 21.0152 20.4954 21.0258 20.5984 21.0666C20.7014 21.1074 20.7895 21.1766 20.8516 21.2653C20.9136 21.354 20.9469 21.4584 20.9471 21.5652C20.9471 21.7088 20.8875 21.8465 20.7816 21.9481C20.6756 22.0496 20.5319 22.1067 20.3821 22.1067ZM26.7551 27.6602C26.6435 27.6602 26.5345 27.6285 26.4417 27.5691C26.349 27.5097 26.2767 27.4253 26.234 27.3266C26.1913 27.2278 26.1801 27.1191 26.2019 27.0143C26.2237 26.9094 26.2774 26.8131 26.3563 26.7375C26.4351 26.6619 26.5356 26.6105 26.645 26.5896C26.7544 26.5687 26.8678 26.5794 26.9709 26.6204C27.074 26.6613 27.162 26.7305 27.224 26.8194C27.286 26.9083 27.3191 27.0128 27.3191 27.1197C27.3188 27.263 27.2593 27.4003 27.1536 27.5016C27.0479 27.6029 26.9046 27.66 26.7551 27.6602ZM26.7551 25.7435C26.5644 25.7436 26.3757 25.7801 26.2 25.8511C26.0244 25.922 25.8652 26.0259 25.7321 26.1566C24.6674 24.5939 23.2227 23.3025 21.5221 22.3932C21.6053 22.2886 21.6723 22.1731 21.7211 22.0501L24.7441 22.743C24.8216 23.0309 24.9946 23.2868 25.237 23.4724C25.4793 23.658 25.778 23.7632 26.0881 23.7723C26.2123 24.4741 26.4754 25.1468 26.8631 25.7541C26.8261 25.7512 26.7921 25.7445 26.7551 25.7445V25.7435ZM26.1291 22.9414C26.0176 22.9414 25.9086 22.9097 25.8158 22.8504C25.7231 22.791 25.6508 22.7066 25.6081 22.6079C25.5654 22.5092 25.5541 22.4006 25.5758 22.2958C25.5975 22.191 25.6511 22.0947 25.7299 22.019C25.8087 21.9434 25.9091 21.8918 26.0184 21.8709C26.1278 21.8499 26.2411 21.8605 26.3442 21.9012C26.4473 21.942 26.5354 22.0111 26.5975 22.0999C26.6596 22.1887 26.6929 22.2931 26.6931 22.3999C26.6931 22.5434 26.6337 22.6809 26.5279 22.7825C26.4222 22.884 26.2787 22.9411 26.1291 22.9414ZM26.5731 21.0985C26.2923 21.0011 25.9852 20.9991 25.7031 21.0928L24.4541 19.2451C24.7068 19.063 24.8897 18.8059 24.9741 18.5139H26.1871C26.2477 18.7235 26.3593 18.9164 26.5128 19.0767C26.6663 19.2369 26.8573 19.36 27.0701 19.4358L26.5731 21.0985Z" fill="#1A1C1F"/>
</svg>
