<svg width="25" height="21" viewBox="0 0 25 21" fill="none" xmlns="http://www.w3.org/2000/svg">
<path d="M6.04002 16.0367V15.5367H5.54002H4.67002C2.82332 15.5367 1.40002 14.1704 1.40002 12.5726V3.51409C1.40002 1.91624 2.82332 0.549988 4.67002 0.549988H20.33C22.1767 0.549988 23.6 1.91624 23.6 3.51409V12.5726C23.6 14.1717 22.1769 15.5367 20.33 15.5367H13.6745H13.5193L13.3913 15.6246L7.57564 19.6218C7.57562 19.6218 7.5756 19.6218 7.57558 19.6218C7.37134 19.762 7.11041 19.8249 6.85017 19.7905C6.59049 19.7561 6.36434 19.6293 6.21551 19.4487C6.09955 19.3062 6.04033 19.1375 6.04002 18.9685C6.04002 18.9684 6.04002 18.9683 6.04002 18.9682L6.04002 16.0367Z" stroke="white"/>
</svg>
