<svg width="26" height="28" viewBox="0 0 26 28" fill="none" xmlns="http://www.w3.org/2000/svg">
<path d="M5.20004 12.4231C4.32004 12.4231 3.60004 13.2019 3.60004 14.1538C3.60004 15.1058 4.32004 15.8846 5.20004 15.8846C6.08004 15.8846 6.80004 15.1058 6.80004 14.1538C6.80004 13.2019 6.08004 12.4231 5.20004 12.4231ZM21.2 12.4231C20.32 12.4231 19.6 13.2019 19.6 14.1538C19.6 15.1058 20.32 15.8846 21.2 15.8846C22.08 15.8846 22.8 15.1058 22.8 14.1538C22.8 13.2019 22.08 12.4231 21.2 12.4231ZM13.2 12.4231C12.32 12.4231 11.6 13.2019 11.6 14.1538C11.6 15.1058 12.32 15.8846 13.2 15.8846C14.08 15.8846 14.8 15.1058 14.8 14.1538C14.8 13.2019 14.08 12.4231 13.2 12.4231Z" fill="#DEC1C1"/>
</svg>
